# xmcd CD database file
#
# Track frame offsets:
#	182
#	10002
#	28327
#	38937
#	51607
#	60322
#	85330
#	116007
#	128315
#	146035
#
# Disc length: 2246 seconds
#
# Revision: 2
# Processed by: cddbd v1.4PL0 Copyright (c) Steve Scherf et al.
# Submitted via: Feurio! 1.66 - http://www.feurio.com
#
DISCID=8508c40a
DTITLE=Various Artist - Modern Blues - The Gold Collection CD2(2)
DYEAR=1998
DGENRE=blues
TTITLE0=Canned Heat - Rolling And Tumbling
TTITLE1=Mike Bloomfield - Hully Gully
TTITLE2=Johnny Winter - 38, 32, 20 2.55
TTITLE3=James Cotton - Off The Wall
TTITLE4=Roy Brown - Let The Four Winds Blow
TTITLE5=Jimmi Hendrix - House Of The Rising Sun
TTITLE6=Freddie King - Boogie Funk
TTITLE7=Savoy Brown - I'm Tired
TTITLE8=John Mayall - Mama Talk To Your Daughter
TTITLE9=B. B. King - The Thrill Is Gone
EXTD=
EXTT0=
EXTT1=
EXTT2=
EXTT3=
EXTT4=
EXTT5=
EXTT6=
EXTT7=
EXTT8=
EXTT9=
PLAYORDER=
